# xmcd
#
# Track frame offsets: 
#        150
#        18428
#        40056
#        62183
#        83826
#        107392
#        126274
#        141673
#        165619
#        180941
#        202397
#
# Disc length: 2979 seconds
#
# Revision: 0
# Processed by: cddbd v1.5.2PL0 Copyright (c) Steve Scherf et al.
# Submitted via: ExactAudioCopyFreeDBPlugin 1.0
#
DISCID=980ba10b
DTITLE=Dave Hanson - Almost Horizontal
DYEAR=2016
DGENRE=Blues
TTITLE0=Joanna
TTITLE1=Blind Faith
TTITLE2=Midday Sun
TTITLE3=Devil
TTITLE4=Island Sky
TTITLE5=Do You Get The Fear
TTITLE6=Let It Go
TTITLE7=Por Favor Senor
TTITLE8=Crystal Ball
TTITLE9=Small Town Sinner
TTITLE10=Make Hay
EXTD=
EXTT0=
EXTT1=
EXTT2=
EXTT3=
EXTT4=
EXTT5=
EXTT6=
EXTT7=
EXTT8=
EXTT9=
EXTT10=
PLAYORDER=
